Coordinates
version=1
nRows=11
nColumns=36
inDegrees=yes

Units are S.I. units (second, meters, Newtons, ...)
If the header above contains a line with 'inDegrees', this indicates whether rotational values are in degrees (yes) or radians (no).

endheader
time	pelvis_tilt	pelvis_list	pelvis_rotation	pelvis_tx	pelvis_ty	pelvis_tz	hip_flexion_r	hip_adduction_r	hip_rotation_r	knee_angle_r	knee_angle_r_beta	ankle_angle_r	subtalar_angle_r	mtp_angle_r	hip_flexion_l	hip_adduction_l	hip_rotation_l	knee_angle_l	knee_angle_l_beta	ankle_angle_l	subtalar_angle_l	mtp_angle_l	lumbar_extension	lumbar_bending	lumbar_rotation	arm_flex_r	arm_add_r	arm_rot_r	elbow_flex_r	pro_sup_r	arm_flex_l	arm_add_l	arm_rot_l	elbow_flex_l	pro_sup_l
      0.00000000	      3.52475389	     -0.35537077	      0.62911069	      0.02605192	      1.17584912	      0.14646203	      0.22304560	      6.22827213	     -3.41056046	      4.95677818	      0.08651210	      5.87311860	     -5.83307061	     -6.14271454	     10.89364982	     -7.43513025	     -1.20709190	     17.34963516	      0.30280826	      8.82631098	      4.08613582	     -6.14271454	     -2.92747303	      7.13088025	     -2.85479457	      0.81353826	     -7.64376810	     15.31659363	     22.11842605	     71.69579988	     -1.58228959	     -3.97074615	     15.80667962	     27.45142106	     69.75047279
      0.01666670	      4.05162017	      1.15460533	      0.42640322	      0.02576400	      1.17636326	      0.14649529	     -0.45185466	      4.57488012	     -2.25921114	      4.02484386	      0.07024678	      8.85907482	     -7.78622659	     -6.76825152	      9.93820284	     -5.32409534	     -0.66813198	     17.36068656	      0.30300114	      9.36067342	      4.48004514	     -6.76825152	     -2.69245267	      5.79142552	     -2.43542873	      0.44204927	     -6.59898886	      8.49288257	     22.31108502	     77.99673157	     -1.35527368	     -3.61064566	     13.08009680	     27.02510757	     76.07598013
      0.03333330	      2.78271325	      1.80430559	      0.38065617	      0.02749004	      1.17513753	      0.14668343	      0.29152293	      3.88327357	     -3.45028987	      3.49681782	      0.06103098	      9.08599208	     -7.82523871	     -6.86376421	     11.28112168	     -4.51759056	     -0.67018964	     17.85307848	      0.31159500	      9.73974734	      5.06813180	     -6.86376421	     -0.77589822	      4.89263426	     -2.18394686	     -0.25039154	     -5.92966975	      5.51135829	     22.63101684	     77.55450045	     -1.60936169	     -3.29176765	     11.48261666	     26.16149259	     75.35827123
      0.05000000	      3.00678838	      1.77279201	      0.44571284	      0.02661385	      1.17717670	      0.14693479	     -0.24138091	      3.79930483	     -3.68666012	      3.46395928	      0.06045749	      9.60493274	     -7.48691432	     -6.93245743	     10.92621053	     -4.45299311	     -0.45523241	     17.89937923	      0.31240310	      9.93286783	      5.21356413	     -6.93245743	     -1.06428858	      4.97402713	     -2.25921294	     -0.37146781	     -5.71319076	      3.83647098	     23.14339595	     76.60626093	     -1.82608092	     -2.96405650	     10.44741857	     25.94195875	     74.19079509
      0.06666670	      3.01019119	      1.48097487	      0.70372444	      0.02655603	      1.17532766	      0.14776648	     -0.50525109	      4.20998403	     -3.82242107	      3.15471543	      0.05506017	      9.50686366	     -7.63761490	     -7.07595805	     11.14443633	     -4.77396456	     -0.23346808	     18.15168378	      0.31680665	      9.88010790	      4.77229692	     -7.07595805	     -1.20371432	      5.40556270	     -1.97441980	     -1.04577694	     -5.03991171	     -2.21082343	     24.46453426	     81.41489629	     -2.07154995	     -2.25811836	      7.20676011	     26.15385104	     75.20115281
      0.08333330	      3.11251876	      1.32666133	      0.87920946	      0.02726770	      1.17669212	      0.14707113	     -0.92159110	      4.45031948	     -3.97124144	      2.93916823	      0.05129816	      9.14096262	     -7.75550167	     -7.10155540	     11.16581338	     -4.87542802	     -0.07261306	     18.31874356	      0.31972239	      9.64067669	      4.48489686	     -7.10155540	     -1.13403284	      5.64099765	     -1.82900748	     -1.17614874	     -5.09587950	     -2.00498260	     24.30493415	     81.47534458	     -2.05516221	     -1.99155485	      6.92209258	     25.90204467	     74.85371478
      0.10000000	      3.00656135	      1.36810691	      1.01835791	      0.02773303	      1.17471362	      0.14719310	     -0.98622942	      4.50468254	     -4.01577488	      2.46330768	      0.04299283	      9.06149475	     -7.72500985	     -7.17122893	     11.32515738	     -4.85644234	      0.08371474	     18.30162705	      0.31942365	      9.68569666	      4.36391014	     -7.17122893	     -0.90093514	      5.64331982	     -1.80182440	     -1.41935559	     -5.04119136	     -1.69307268	     24.51160619	     79.74651603	     -2.19099604	     -1.79766870	      6.27143957	     26.05559733	     73.05451796
      0.11666670	      2.90061875	      1.41090274	      0.90724416	      0.02525474	      1.17491630	      0.14864143	     -0.94190808	      4.57497769	     -4.06484370	      2.00023292	      0.03491065	      8.47287524	     -8.34555925	     -7.16811517	     11.53714939	     -4.88617106	      0.01159211	     18.32747182	      0.31987473	      9.58413221	      4.60389000	     -7.16811517	     -0.80579864	      5.58041448	     -1.45831313	     -1.46865272	     -4.98116564	     -1.32973636	     24.40034971	     79.76488210	     -2.08808563	     -1.63773555	      5.54363949	     25.99744281	     72.87502859
      0.13333330	      2.80265213	      1.47534105	      0.99074703	      0.02536272	      1.17467688	      0.14863331	     -0.84814953	      4.57590637	     -4.62760293	      1.72384874	      0.03008684	      8.40678455	     -8.00984987	     -7.20044176	     11.77326508	     -4.79455273	      0.46394082	     18.40722361	      0.32126666	      9.15806398	      4.13409370	     -7.20044176	     -0.72591292	      5.49607556	     -1.57711096	     -1.37532987	     -4.93502172	     -0.67364733	     24.24470553	     79.21058470	     -2.05184430	     -1.55837688	      5.08566384	     25.97289970	     72.19336450
      0.15000000	      2.74539547	      1.48918462	      1.00202786	      0.02560248	      1.17797975	      0.14871222	     -0.82915296	      4.55601952	     -4.72840317	      1.54971972	      0.02704771	      7.92272215	     -8.14592766	     -7.39339558	     11.73406622	     -4.76386493	      0.57081670	     18.23322689	      0.31822984	      8.78693093	      4.20128312	     -7.39339558	     -0.69062399	      5.44567541	     -1.92546680	     -1.07228607	     -5.03969211	      0.66923094	     23.72717584	     84.20419471	     -2.33854473	     -1.34760719	      2.91720343	     26.51299053	     74.91938768
      0.16666670	      2.89456863	      1.46273591	      1.06204333	      0.02545950	      1.17752087	      0.14881275	     -1.02052832	      4.59695896	     -4.72141642	      1.46450220	      0.02556039	      7.53248147	     -8.42151168	     -7.41628291	     11.46443234	     -4.81022534	      0.54424738	     18.10166276	      0.31593362	      8.80287401	      4.56035896	     -7.41628291	     -0.98296544	      5.42397119	     -1.86263763	     -1.14964600	     -5.00202314	      0.98052770	     23.90107646	     81.54247110	     -2.16152741	     -1.32088052	      2.84817776	     26.55259639	     73.04193180
